<?xml version="1.0" standalone="no"?><!DOCTYPE svg PUBLIC "-//W3C//DTD SVG 1.1//EN" "http://www.w3.org/Graphics/SVG/1.1/DTD/svg11.dtd"><svg t="1757259541434" class="icon" viewBox="0 0 1024 1024" version="1.1" xmlns="http://www.w3.org/2000/svg" p-id="2353" xmlns:xlink="http://www.w3.org/1999/xlink" width="32" height="32"><path d="M504.32 624.1792c26.6752 0 53.2992 21.3504 58.6752 58.6752v224c0 31.9488-26.624 58.624-58.624 58.6752a59.1872 59.1872 0 0 1-58.7264-58.6752v-223.9488c0-32 26.7264-58.7264 58.7264-58.7264z" p-id="2354" fill="#1e40af"></path><path d="M504.5248 58.88c245.248 0 447.8976 202.7008 442.5728 453.3248 0 129.1264-55.808 249.6512-144.2304 330.8544-16.4864 15.1552-42.24 10.7008-54.6816-7.9872-11.1616-16.7424-7.6288-39.168 6.8096-53.248 70.7072-68.8128 117.4528-165.5296 117.4528-274.944 0-208.0256-165.3248-373.248-373.2992-373.248a370.944 370.944 0 0 0-373.248 373.248c0 109.568 42.5472 206.4384 116.3264 275.3024 14.848 13.824 18.8416 36.4544 7.5776 53.3504-12.288 18.432-37.632 22.8352-53.9648 7.936C107.1616 762.2656 51.2 641.536 51.2 512.2048A452.9152 452.9152 0 0 1 504.5248 58.88z" p-id="2355" fill="#1e40af"></path><path d="M504.4224 250.9312c138.5984 0 255.9488 117.2992 255.9488 256 0 60.7744-21.248 114.5344-55.04 158.3104-12.544 16.2304-36.5056 15.4624-50.176 0.2048-12.8-14.1312-11.8784-35.6864-1.28-51.456 19.712-29.3376 31.8464-65.536 31.8464-101.7344a179.8656 179.8656 0 0 0-181.2992-181.3504 179.8144 179.8144 0 0 0-181.2992 181.3504c0 36.1984 12.1344 72.3456 31.7952 101.6832 10.6496 15.872 11.52 37.376-1.2288 51.5584-13.7216 15.2576-37.6832 15.9744-50.176-0.256-33.8432-43.776-55.0912-97.536-55.0912-158.3616 0-138.6496 111.9744-255.9488 256-255.9488z" p-id="2356" fill="#1e40af"></path><path d="M504.32 448.256c31.9488 0 64 26.6752 64 64s-26.6752 64-64 64c-37.376 0-64-26.6752-64-64s26.624-64 64-64z" p-id="2357" fill="#1e40af"></path></svg>