<?xml version="1.0" standalone="no"?><!DOCTYPE svg PUBLIC "-//W3C//DTD SVG 1.1//EN" "http://www.w3.org/Graphics/SVG/1.1/DTD/svg11.dtd"><svg t="1757259510880" class="icon" viewBox="0 0 1024 1024" version="1.1" xmlns="http://www.w3.org/2000/svg" p-id="2085" xmlns:xlink="http://www.w3.org/1999/xlink" width="32" height="32"><path d="M511.0272 214.6816c-150.6304 0-273.2032 123.0336-273.2032 274.176 0 151.1424 122.5728 274.2272 273.2032 274.2272s273.2544-123.0848 273.2544-274.2272-122.624-274.176-273.2544-274.176z m0 474.5728c-109.7728 0-198.912-89.6-198.912-199.8848s89.088-199.8848 198.912-199.8848c109.7728 0 198.912 89.6 198.912 199.8848s-89.088 199.8848-198.912 199.8848z m0-496.2304c21.1968 0 38.4-17.2544 38.4-38.4v-76.8a38.4512 38.4512 0 0 0-76.8 0v76.8c0 21.1456 17.2544 38.4 38.4 38.4z" p-id="2086" fill="#166534"></path><path d="M250.3168 280.1152a38.0416 38.0416 0 0 0 53.6576-0.512 38.3488 38.3488 0 0 0 0-54.6304L249.8048 170.8544a36.8128 36.8128 0 0 0-27.5968-11.3664 36.9664 36.9664 0 0 0-26.5728 11.8272 38.656 38.656 0 0 0 0 54.1696L250.368 280.064zM179.4048 451.4304h-76.8a38.4512 38.4512 0 0 0 0 76.8h76.8a38.4512 38.4512 0 0 0 0-76.8z m742.4 0h-76.8a38.4 38.4 0 0 0 0 76.8h76.8a38.4 38.4 0 0 0 0-76.8zM747.52 291.4304a38.4 38.4 0 0 0 27.0848-11.264l54.6304-54.6816a38.3488 38.3488 0 0 0 0-54.6304 38.9632 38.9632 0 0 0-53.6576-0.512l-55.1424 55.1424a38.3488 38.3488 0 0 0 0 54.6304 37.5808 37.5808 0 0 0 27.136 11.3152z m-130.4576 514.5088H405.3504a38.4 38.4 0 0 0 0 76.8h211.2c21.1968 0 38.4-17.2544 38.4-38.4a37.7344 37.7344 0 0 0-37.888-38.4z m-31.0272 101.888H436.3776a38.4 38.4 0 0 0 0 76.8h149.6576a38.4512 38.4512 0 0 0 0-76.8z" p-id="2087" fill="#166534"></path></svg>